#!OML:ASF X:\für Bonn\!DataBase\2005_08_12_Daniel\c3d\Daniel.ASF
:FULLY-SPECIFIED
:DEGREES
99
root -3.86579 17.2711 -0.862274 373.096 -85.051 -390.957
lowerback 28.1327 -11.706 -7.65731
upperback 10.0987 -18.1839 -1.04135
thorax -1.59922 -9.71053 7.81287
lowerneck 8.93297 9.16675 -5.06355
upperneck 16.9309 10.8659 -1.12022
head 3.83613 4.50678 0.478362
rclavicle 3.29983e-014 1.35174e-014
rhumerus -38.3418 14.923 -77.6598
rradius 81.1574
rwrist -1.45573
rhand -31.2619 38.1707
rfingers 7.12502
rthumb -4.53606 8.23924
lclavicle 3.29983e-014 1.35174e-014
lhumerus 26.32 0.168454 75.8122
lradius 130.087
lwrist 45.2585
lhand -7.29529 -11.3867
lfingers 7.12502
lthumb 18.5868 17.7454
rfemur -31.0663 -9.51107 11.7136
rtibia 78.9467
rfoot 2.18263 -4.44737
rtoes -11.7054
lfemur 2.98455 -9.51035 -23.6952
ltibia 33.4512
lfoot -23.4423 4.96355
ltoes 6.26308
100
root -3.88255 17.267 -0.884712 372.393 -85.3846 -389.944
lowerback 27.4514 -11.4163 -7.51071
upperback 9.93051 -17.7016 -1.06964
thorax -1.61645 -9.43991 7.4965
lowerneck 9.13327 8.96002 -5.01906
upperneck 16.9625 10.5654 -1.01335
head 3.81178 4.36519 0.498147
rclavicle 3.79679e-014 3.18055e-015
rhumerus -37.9193 14.9295 -78.0396
rradius 81.5975
rwrist -1.49832
rhand -31.2277 38.4621
rfingers 7.12502
rthumb -4.50297 8.52993
lclavicle 3.79679e-014 3.18055e-015
lhumerus 25.2308 -0.194349 75.6815
lradius 129.854
lwrist 45.119
lhand -7.40863 -11.4319
lfingers 7.12502
lthumb 18.4778 17.7105
rfemur -29.441 -8.8257 11.503
rtibia 76.7203
rfoot 2.06711 -5.01529
rtoes -12.5497
lfemur 2.70299 -9.56052 -23.8584
ltibia 33.5355
lfoot -23.6539 5.24668
ltoes 6.3048
101
root -3.8987 17.2614 -0.907754 371.12 -85.7207 -388.368
lowerback 26.8062 -11.1157 -7.35463
upperback 9.74833 -17.2067 -1.12345
thorax -1.67153 -9.15887 7.16123
lowerneck 9.3414 8.74313 -4.94342
upperneck 16.9875 10.2546 -0.913753
head 3.78626 4.22069 0.510703
rclavicle 1.01778e-013 -4.45278e-014
rhumerus -37.5283 14.8932 -78.44
rradius 81.9815
rwrist -1.6334
rhand -31.1366 38.8193
rfingers 7.12502
rthumb -4.41502 8.88529
lclavicle 1.01778e-013 -4.45278e-014
lhumerus 24.0347 -0.625601 75.6275
lradius 129.586
lwrist 44.8647
lhand -7.48898 -11.616
lfingers 7.12502
lthumb 18.4005 17.5337
rfemur -27.8833 -8.16068 11.2585
rtibia 74.5255
rfoot 1.93024 -5.59169
rtoes -12.9148
lfemur 2.42615 -9.59775 -24.0533
ltibia 33.6058
lfoot -23.8536 5.55487
ltoes 6.24513
102
root -3.91421 17.2571 -0.931792 370.006 -86.0697 -386.952
lowerback 26.1839 -10.7947 -7.1776
upperback 9.56312 -16.6833 -1.16564
thorax -1.7385 -8.86426 6.83029
lowerneck 9.51299 8.52105 -4.86786
upperneck 17.0646 9.93852 -0.805222
head 3.78594 4.07105 0.529495
rclavicle 1.13506e-013 -4.6118e-014
rhumerus -37.2013 14.8495 -78.785
rradius 82.3337
rwrist -1.78541
rhand -31.053 39.2126
rfingers 7.12502
rthumb -4.33436 9.27691
lclavicle 1.13506e-013 -4.6118e-014
lhumerus 22.8435 -1.11312 75.6053
lradius 129.299
lwrist 44.5325
lhand -7.59141 -11.8052
lfingers 7.12502
lthumb 18.3019 17.3538
rfemur -26.3999 -7.51054 11.0907
rtibia 72.3643
rfoot 1.84361 -6.16638
rtoes -12.7983
lfemur 2.15666 -9.62407 -24.2119
ltibia 33.6651
lfoot -24.0519 5.83522
ltoes 6.33442
103
root -3.92916 17.2562 -0.955302 368.483 -86.4426 -385.128
lowerback 25.5805 -10.4536 -6.96458
upperback 9.38294 -16.1297 -1.24041
thorax -1.82457 -8.55301 6.44898
lowerneck 9.65166 8.27976 -4.76267
upperneck 17.1138 9.60418 -0.672695
head 3.7816 3.91813 0.552587
rclavicle -4.8901e-014 -1.59028e-015
rhumerus -36.9246 14.7614 -79.1212
rradius 82.6703
rwrist -2.04293
rhand -30.9253 39.5599
rfingers 7.12502
rthumb -4.211 9.62177
lclavicle -4.8901e-014 -1.59028e-015
lhumerus 21.6515 -1.66734 75.579
lradius 129.012
lwrist 44.0803
lhand -7.74297 -11.9705
lfingers 7.12502
lthumb 18.1561 17.2021
rfemur -24.9949 -6.85578 10.9204
rtibia 70.2474
rfoot 1.77114 -6.7315
rtoes -11.9679
lfemur 1.91214 -9.64307 -24.3905
ltibia 33.6797
lfoot -24.25 6.14816
ltoes 6.28462
